<svg xmlns="http://www.w3.org/2000/svg" xmlns:xlink="http://www.w3.org/1999/xlink" width="990" height="262" viewBox="0 0 990 262">
    <defs>
        <path id="psqopziiya" d="M0 0.394L90.43 0.394 90.43 106.808 0 106.808z"/>
        <path id="hfe5jpbkhc" d="M0 261.606L989.115 261.606 989.115 1 0 1z"/>
    </defs>
    <g fill="none" fill-rule="evenodd">
        <g transform="translate(0 .606)">
            <mask id="kwn0eor72b" fill="#fff">
                <use xlink:href="#psqopziiya"/>
            </mask>
            <path fill="#00539E" d="M45.215 11.05c-17.712 0-32.255 14.11-32.255 42.623 0 27.648 14.543 42.479 32.255 42.479 18 0 32.256-14.831 32.256-42.48 0-28.511-14.544-42.622-32.256-42.622m-.288 95.758C17.424 106.808 0 84.632 0 53.673 0 21.993 18 .393 45.503.393c27.504 0 44.927 21.6 44.927 53.28 0 30.959-17.856 53.135-45.503 53.135" mask="url(#kwn0eor72b)"/>
        </g>
        <path fill="#00539E" d="M136.062 41.32c-9.359 0-14.399 6.336-17.999 10.512v37.295c3.311 3.455 8.783 7.488 16.128 7.488 9.071 0 19.151-5.041 19.151-27.65 0-19.006-7.488-27.645-17.28-27.645m1.152 65.373c-6.048 0-14.399-1.871-19.15-7.631v34.703h-12.24V46.504c0-3.457-.433-10.37-.577-13.538h10.512l.864 8.93c4.463-5.041 10.368-10.656 22.032-10.656 18.431 0 27.36 16.703 27.36 36.574 0 24.336-10.08 38.879-28.8 38.879M211.336 41.175c-10.08 0-17.855 6.48-19.008 22.463h37.44c-.288-15.55-6.624-22.463-18.432-22.463zm-19.15 32.256c1.295 16.848 11.95 22.894 21.742 22.894 8.496 0 15.696-3.744 20.592-7.92l6.047 8.352c-6.912 5.904-14.975 9.936-26.495 9.936-19.007 0-34.704-12.096-34.704-37.006 0-26.64 15.985-38.448 31.968-38.448 23.184 0 30.96 16.848 30.96 42.192h-50.11zM301.178 104.966v-43.63c0-12.097-3.887-19.729-15.264-19.729-7.92 0-13.534 5.904-16.99 11.375v51.984h-12.24V45.927c0-2.447-.433-10.512-.577-12.96h10.512l.864 9.36c3.313-5.472 11.233-11.088 20.591-11.088 18.577 0 25.344 11.088 25.344 30.815v42.912h-12.24zM367.047 61.912h-14.688V88.55h14.976c11.232 0 17.71-4.752 17.71-12.528 0-9.648-5.614-14.111-17.998-14.111m-1.44-42.05h-13.248V45.64h15.264c8.783 0 14.543-5.327 14.543-13.391 0-8.352-6.336-12.385-16.56-12.385m-.576 85.104h-32.543V3.449h32.543c24.048 0 37.584 8.352 37.584 28.654 0 8.928-7.92 18.288-18.431 20.305 10.8 1.008 21.31 10.367 21.31 23.902 0 20.592-13.967 28.657-40.463 28.657"/>
        <mask id="3mz2fvtvsd" fill="#fff">
            <use xlink:href="#hfe5jpbkhc"/>
        </mask>
        <path fill="#00539E" d="M420.348 104.967L439.787 104.967 439.787 1.289 420.348 1.289zM506.466 104.966l-2.16-8.64c-5.472 7.056-12.672 10.656-21.455 10.656-18.72 0-25.2-10.657-25.2-29.664V32.966h19.439V74.87c0 12.817 1.729 16.992 10.225 16.992 7.919 0 11.95-6.335 13.39-8.496v-50.4h19.44v59.04c0 2.448.72 10.511.865 12.96h-14.544zM569.668 44.63c-8.928 0-13.968 5.617-14.976 17.568h29.52c-.144-9.935-4.032-17.568-14.544-17.568zm-15.12 30.096c1.873 13.535 11.376 17.424 18.576 17.424 8.64 0 13.536-2.592 19.44-7.63L601.49 96.9c-8.783 7.2-17.711 10.368-27.791 10.368-20.447 0-38.303-11.662-38.303-37.727 0-27.79 15.55-38.879 34.559-38.879 24.19 0 32.976 19.008 32.976 44.063h-48.383z" mask="url(#3mz2fvtvsd)"/>
        <path fill="#00BBE3" d="M9.132 235.448L9.132 158.607 54.255 158.607 54.255 171.033 24.173 171.033 24.173 189.453 51.748 189.453 51.748 201.878 24.173 201.878 24.173 223.023 55.345 223.023 55.345 235.448zM100.014 235.448v-30.3c0-8.611-.763-14.06-8.828-14.06-3.816 0-7.412 2.834-10.137 6.213v38.147H66.335V190.76c0-1.852-.544-7.956-.653-9.81H76.69l1.636 6.977c3.923-5.014 9.263-8.72 17.11-8.72 14.06 0 19.292 6.976 19.292 26.922v29.319h-14.713zM151.68 236.755c-14.279 0-19.401-6.539-19.401-21.035v-23.325h-9.373V180.95h9.373v-14.714H147.1v14.714h13.844v11.445h-13.952V216.7c0 5.341 1.417 8.284 6.103 8.284 2.398 0 5.45-.98 7.084-1.853l4.36 10.572c-2.942 1.744-7.846 3.052-12.86 3.052M194.843 189.78c-6.757 0-10.572 4.25-11.335 13.297h22.344c-.11-7.521-3.052-13.297-11.01-13.297zm-11.444 22.779c1.417 10.245 8.61 13.189 14.06 13.189 6.54 0 10.245-1.962 14.714-5.778l6.758 9.374c-6.65 5.45-13.406 7.848-21.036 7.848-15.477 0-28.992-8.83-28.992-28.557 0-21.036 11.77-29.427 26.159-29.427 18.31 0 24.959 14.386 24.959 33.35h-36.622zM261.223 195.666c-1.962-1.2-3.597-1.526-5.123-1.526-5.23 0-8.065 4.359-9.918 7.193v34.115h-14.714v-44.142c0-1.853-.545-8.501-.654-10.355h11.01l1.088 9.7c2.943-5.884 7.74-11.443 17.875-11.443 2.071 0 3.597.218 4.687.545l-4.25 15.913zM299.154 190.652c-4.359 0-7.738 2.288-9.918 5.014v27.357c1.2 1.308 4.47 2.725 8.065 2.725 5.124 0 12.97-3.271 12.97-17.548 0-11.01-3.705-17.548-11.117-17.548m2.943 46.54c-4.36 0-9.59-1.526-12.86-4.686v24.74h-14.715v-66.05c0-2.615-.545-7.847-.654-10.245h11.008l1.635 6.322c4.36-5.232 9.483-8.065 16.131-8.065 13.407 0 22.671 9.59 22.671 29.21 0 19.619-11.88 28.774-23.216 28.774M366.516 195.666c-1.962-1.2-3.597-1.526-5.123-1.526-5.23 0-8.065 4.359-9.918 7.193v34.115h-14.714v-44.142c0-1.853-.545-8.501-.654-10.355h11.01l1.088 9.7c2.943-5.884 7.74-11.443 17.875-11.443 2.071 0 3.597.218 4.687.545l-4.25 15.913zM380.251 235.448h14.714v-54.497h-14.714v54.497zm-.436-63.871h15.586v-14.605h-15.586v14.605zM427.555 236.974c-10.026 0-16.13-3.053-22.889-7.52l6.432-10.137c4.686 3.487 10.464 6.43 16.022 6.43 5.34 0 7.52-1.744 7.52-4.905 0-4.25-3.923-5.667-10.572-7.302-7.411-1.853-17.002-6.322-17.002-17.112 0-10.027 7.846-17.003 21.907-17.003 7.847 0 14.06 1.635 20.163 6.321l-5.886 9.81c-4.25-3.597-11.116-4.904-13.623-4.904-5.233 0-7.52 1.416-7.52 4.36 0 4.577 5.012 5.885 13.731 8.174 5.233 1.417 13.844 5.231 13.844 17.221 0 11.226-9.375 16.567-22.127 16.567M483.798 189.78c-6.757 0-10.572 4.25-11.335 13.297h22.344c-.11-7.521-3.052-13.297-11.01-13.297zm-11.444 22.779c1.417 10.245 8.61 13.189 14.06 13.189 6.54 0 10.245-1.962 14.714-5.778l6.758 9.374c-6.65 5.45-13.406 7.848-21.036 7.848-15.477 0-28.992-8.83-28.992-28.557 0-21.036 11.77-29.427 26.159-29.427 18.31 0 24.959 14.386 24.959 33.35h-36.622zM625.058 235.448v-60.273s-2.616 11.444-5.014 18.855l-13.733 41.418h-16.895l-13.514-41.418c-2.18-6.648-5.232-18.855-5.232-18.855v60.273h-14.823v-76.841h23.651l13.08 40.11c2.18 6.649 5.668 18.965 5.668 18.965s3.487-12.316 5.666-18.964l12.971-40.111h23.434v76.84h-15.259zM684.247 210.162h-4.47c-7.301 0-12.97 1.962-12.97 9.155 0 4.469 3.052 7.303 8.175 7.303 4.578 0 7.739-2.616 9.265-4.905v-11.553zm4.359 25.286l-1.634-6.213c-3.488 4.687-9.483 7.957-16.458 7.957-8.611 0-18.747-4.578-18.747-17.657 0-12.425 10.572-18.747 26.812-18.747h5.668v-1.962c0-6.321-3.488-9.046-7.521-9.046-8.065 0-13.515 2.507-18.856 5.449l-4.25-9.918c7.303-3.815 13.95-6.103 21.035-6.103 16.458 0 24.306 5.776 24.306 20.817v24.088c0 2.18.654 9.483.654 11.335h-11.01zM746.811 235.448v-30.3c0-8.611-.763-14.06-8.828-14.06-3.816 0-7.412 2.834-10.137 6.213v38.147h-14.714V190.76c0-1.852-.545-7.956-.654-9.81h11.01l1.634 6.977c3.923-5.014 9.263-8.72 17.111-8.72 14.06 0 19.292 6.976 19.292 26.922v29.319h-14.714zM804.907 210.162h-4.469c-7.302 0-12.97 1.962-12.97 9.155 0 4.469 3.051 7.303 8.174 7.303 4.578 0 7.739-2.616 9.265-4.905v-11.553zm4.359 25.286l-1.634-6.213c-3.488 4.687-9.483 7.957-16.458 7.957-8.611 0-18.747-4.578-18.747-17.657 0-12.425 10.572-18.747 26.812-18.747h5.668v-1.962c0-6.321-3.488-9.046-7.521-9.046-8.065 0-13.515 2.507-18.856 5.449l-4.25-9.918c7.303-3.815 13.951-6.103 21.035-6.103 16.458 0 24.306 5.776 24.306 20.817v24.088c0 2.18.654 9.483.654 11.335h-11.009zM856.027 190.106c-6.43 0-9.265 4.469-9.265 9.483 0 4.468 3.38 8.284 9.374 8.284 4.905 0 9.373-2.617 9.373-8.502 0-4.687-1.96-9.265-9.482-9.265zm5.886 47.086l-14.06-2.289c-2.616 1.525-4.578 4.686-4.578 8.828 0 4.142 4.795 7.412 14.06 7.412 6.867 0 10.791-3.27 10.791-7.52 0-3.162-1.745-5.668-6.213-6.431zm22.234-47.086l-8.283-.763c2.725 2.725 3.814 6.867 3.814 10.028 0 14.387-11.335 19.401-23.433 19.401-2.398 0-5.994-.654-7.63-1.199-.87.762-1.635 1.962-1.635 3.269 0 1.527 1.417 2.289 4.033 2.726l15.696 2.725c7.847 1.307 15.694 6.212 15.694 17.438 0 9.482-8.938 17.875-24.523 17.875-17.439 0-27.139-5.667-27.139-16.131 0-8.175 4.577-11.662 9.7-13.733-3.924-2.18-5.668-4.796-5.668-8.501 0-4.687 3.815-7.739 6.431-9.374-4.687-2.507-8.72-8.066-8.72-14.278 0-11.226 7.521-20.381 23.543-20.381 2.29 0 5.231.762 7.303 1.198l22.671-.872-1.854 10.572zM918.483 189.78c-6.757 0-10.572 4.25-11.335 13.297h22.344c-.11-7.521-3.052-13.297-11.009-13.297zm-11.444 22.779c1.417 10.245 8.611 13.189 14.06 13.189 6.54 0 10.245-1.962 14.714-5.778l6.758 9.374c-6.649 5.45-13.406 7.848-21.036 7.848-15.477 0-28.992-8.83-28.992-28.557 0-21.036 11.771-29.427 26.16-29.427 18.31 0 24.958 14.386 24.958 33.35H907.04zM984.864 195.666c-1.962-1.2-3.597-1.526-5.123-1.526-5.23 0-8.065 4.359-9.918 7.193v34.115H955.11v-44.142c0-1.853-.545-8.501-.654-10.355h11.01l1.088 9.7c2.943-5.884 7.74-11.443 17.875-11.443 2.071 0 3.597.218 4.687.545l-4.25 15.913z" mask="url(#3mz2fvtvsd)"/>
    </g>
</svg>
